# xmcd
# Track frame offsets:
# 182
# 20922
# 42342
#
# Disc length: 832 seconds
# Revision: 0
# Processed by: cddbd v1.4PL0 Copyright (c) Steve Scherf et al.
# Submitted via: VisiTrax 2.9.5.180 - For more info visit www.synapsa.com
#
DISCID=22033e03
DTITLE=Mr. F.I.N.E. - Mr. F.I.N.E.
DYEAR=1998
DGENRE=
TTITLE0=I swear
TTITLE1=Get ready
TTITLE2=Missy
EXTD=
EXTT0=
EXTT1=
EXTT2=
PLAYORDER=
